<svg version="1" xmlns="http://www.w3.org/2000/svg" width="450.667" height="450.667" viewBox="0 0 338.000000 338.000000"><path d="M78 26c-14 1.6-26.8 2.9-28.3 2.9-2.7.1-2.8.2-2.2 4.8 5.4 47.5 5.7 51.7 5.1 71.3-.4 12.9-1.9 29.6-4.3 49.2-2 16.4-3.3 30.1-3 30.5 1.1 1 58.1-5.8 59.4-7.1.3-.2 0-12.1-.6-26.3-.6-14.2-1.1-30.8-1.1-36.9v-11.1l6.1-.7c7.7-.8 21.2-.8 26 0 3.6.6 3.6.6 3.3 5.3-.2 2.5-.8 12-1.4 21.1-.6 9.1-2 23.5-3.1 32-1 8.5-1.9 16.3-1.9 17.2 0 1.7 2.2 1.8 33.1 1.8h33.1l-.5-2.3c-.3-1.2-.9-3.5-1.3-5.1-.5-2.3-.4-2.8.7-2.4 22 9 34.2 11.8 51.6 11.8 16.2 0 19.2-1.5 33.8-16.3 12.3-12.5 19.2-22.2 23.1-32.3 2.2-5.7 2.7-8.6 2.7-16.4 0-13.4-3.7-22.2-11.9-28-2-1.5-2-1.8-.9-11 .7-5.2 1.6-18.3 2-29.1l.7-19.6-5.3-.6c-3-.4-13-.9-22.4-1.2-9.3-.4-21.6-1-27.2-1.5-15.4-1.4-18.4-.3-44 16.6l-9.4 6.2.7-11.4.7-11.4H133l.1 2.7c0 1.6 1.1 10.2 2.3 19.3 1.3 9.1 2.2 16.6 2.1 16.8-.6.7-17.9 2.2-25.8 2.2h-8.9l.6-2.8c1-5.1 1.9-41.2 1-41.1-.5.1-12.4 1.4-26.4 2.9zm16.5 13c0 3-.4 12.3-.8 20.6l-.8 15.2 9.3.6c7.9.6 31.7-.6 38.3-1.9 1.1-.2 3.2-.6 4.6-.9l2.6-.6-2.7-18.5-2.6-18.5h38.8l-.7 7.2c-4.6 49.2-4.4 95 .4 114 1 3.7 1.4 6.8.9 6.8-.4 0-.8.8-.8 1.7 0 1.5.2 1.6 1 .3.7-1.1 1.1-.9 2 1.4 1.3 3.5.6 4.4-2 2.8-1.1-.7-2-.8-2-.2 0 1.3-36.7 1.3-37.5 0-.3-.6.3-8.5 1.4-17.8 3.6-29.3 5.1-56.5 3.2-57.6-1.9-1.2-24.4-1.8-39.5-1.1l-15.9.7.7 15.2c.3 8.3.9 20.9 1.1 28.1.3 7.1.8 17.3 1.1 22.6l.5 9.7-3.3.5c-9.8 1.7-14.8 1.9-14.8.6 0-.9-.3-.8-1.2.3-1.5 1.7-18.7 4.2-20.1 2.8-.5-.4-.4-4.1.2-8.1 6.5-42.9 7.5-89.2 2.5-117.7-.9-5.2-1.3-9.7-.9-10 .9-.9 27.8-4 33-3.8l4 .1V39zm167-3.4c16.6 1 26.3 2 26.7 2.8.4.6.5 2 .3 3.1s-.7 8.7-1 16.9c-.3 8.2-.7 15.1-1 15.4-.2.3-3.5-2.4-7.2-5.9-6.8-6.4-13.3-10.2-22.8-13.4-5.8-1.9-23-3-29.5-1.8-4.1.8-4.6 1.2-5.9 4.8-.8 2.2-1.5 7.8-1.5 12.5-.1 10 1.6 13.8 8 18.3 5.9 4.1 16.8 5.7 41.8 6.1l20.9.2 2.9 4c4 5.4 6 13 5.4 20.6-.5 6.6-4.2 17.2-5.7 16.2-.5-.3-.9.3-.9 1.4 0 1-.9 2.8-2 4-1.1 1.2-2 2.6-2 3.2 0 1.8-25.6 26.9-28.1 27.5-4.1 1-24.1-.2-32.4-2-15.2-3.2-35.8-13.2-37.1-18-.2-1.1-.3-7.1-.2-13.3l.3-11.2 5 3.6c2.8 2 10 6 16 8.9 23.3 11.2 43 14.9 52.7 9.9 6.2-3.2 8.4-20.4 3.8-29.8-2.7-5.7-6.1-7.6-13.4-7.6-3 0-5.8-.5-6.1-1-.4-.6-1.1-.8-1.6-.5-.5.3-8 .6-16.6.7-14.7 0-16.2-.1-22-2.5-6.4-2.6-14.9-7.9-17-10.5-1.8-2.2-1.7-26.1.1-33 2.4-8.9 4.2-10.7 21.2-21.3 12-7.4 16.8-9.8 19.4-9.9 1.9 0 15.2.7 29.5 1.6zm-6.9 29.5c7.6 2.4 17 8.5 21.6 14.2 6.2 7.6 7.1 7.1-12.3 6.4-20.6-.7-27.2-1.9-31.1-5.7-3.3-3.4-4.2-6.7-3.4-12.5.6-4 1-4.4 3.9-4.8 5.1-.7 14.7.4 21.3 2.4zM199 116c9.8 4.9 16.1 6.3 28.4 6 23.7-.6 28.4-.2 31.1 2.4 1.4 1.4 2.6 4.1 3 6.9 1.7 11.5-3.9 14.1-20.8 9.7-12.2-3.2-22.1-7.5-38.4-16.8l-15.3-8.7V107.8l3.1 2.7c1.8 1.4 5.7 3.9 8.9 5.5z"/><path d="M77.1 39.6c0 1.1.3 1.4.6.6.3-.7.2-1.6-.1-1.9-.3-.4-.6.2-.5 1.3zM90 41.4c0 .2.7.7 1.6 1 .8.3 1.2.2.9-.4-.6-1-2.5-1.4-2.5-.6zM163.2 64.4c.7.8 1.6 1.2 2.1.9.4-.2.7.1.7.8 0 .7.3.9.6.6.9-.9-1.6-3.7-3.3-3.7-1.1 0-1.1.3-.1 1.4zM94 82.9c0 .5.7 1.4 1.5 2.1 1.6 1.4 1.8 1 .9-1.4-.6-1.7-2.4-2.2-2.4-.7zM150 96c-.8.5-1.1 1.2-.7 1.6.4.4 1.3.2 1.9-.4 1.5-1.5.7-2.4-1.2-1.2zM159.6 102.5c.4.8.8 1.5 1 1.5.2 0 .4-.7.4-1.5s-.4-1.5-1-1.5c-.5 0-.7.7-.4 1.5zM65 105c0 .5.5 1 1.1 1 .5 0 .7-.5.4-1-.3-.6-.8-1-1.1-1-.2 0-.4.4-.4 1zM169 113.2c0 1.1 1.2 1 3-.2 1.2-.7 1-.9-.8-.7-1.2 0-2.2.5-2.2.9zM69 127c0 .5.5 1 1.1 1 .5 0 .7-.5.4-1-.3-.6-.8-1-1.1-1-.2 0-.4.4-.4 1zM63.5 137c.3.5.8 1 1.1 1 .2 0 .4-.5.4-1 0-.6-.5-1-1.1-1-.5 0-.7.4-.4 1zM212.1 74.9c-2.4 1.5-.3 3.2 2.4 1.9 1.3-.6 2.2-1.5 1.9-1.9-.7-1.1-2.5-1.1-4.3 0zM240.8 95.7c.6.2 1.8.2 2.5 0 .6-.3.1-.5-1.3-.5-1.4 0-1.9.2-1.2.5zM251.1 96.9c-.8.5-.9 1.1-.3 1.5.5.3 1.2-.1 1.6-.9.6-1.7.6-1.8-1.3-.6zM223 98c0 .5.5 1 1.1 1 .5 0 .7-.5.4-1-.3-.6-.8-1-1.1-1-.2 0-.4.4-.4 1zM290.8 113.7c.7.3 1.6.2 1.9-.1.4-.3-.2-.6-1.3-.5-1.1 0-1.4.3-.6.6zM282 119.4c0 .4.7 1.4 1.5 2.2.8.9 1.5 1.1 1.5.6 0-.5-.7-1.5-1.5-2.2-.8-.7-1.5-.9-1.5-.6zM277 134c0 .5.5 1 1.1 1 .5 0 .7-.5.4-1-.3-.6-.8-1-1.1-1-.2 0-.4.4-.4 1zM197.5 135c.3.5 1.1 1 1.6 1 .6 0 .7-.5.4-1-.3-.6-1.1-1-1.6-1-.6 0-.7.4-.4 1zM195.7 137.4c-.4 1-.1 1.3.8.9.8-.3 1.2-.9.9-1.4-.7-1.2-1.1-1.1-1.7.5zM208.5 142c.3.5 1.1 1 1.6 1 .6 0 .7-.5.4-1-.3-.6-1.1-1-1.6-1-.6 0-.7.4-.4 1zM229.5 155c-.3.5.1 1 .9 1 .9 0 1.6-.5 1.6-1 0-.6-.4-1-.9-1-.6 0-1.3.4-1.6 1zM239 164.4c0 .2.8 1 1.8 1.7 1.5 1.3 1.6 1.2.3-.4s-2.1-2.1-2.1-1.3zM46 195.7c-5.2.8-13.2 2-17.6 2.6l-8.1 1.2 1.4 5.4c4.9 19.3 5.7 46 2.3 81.6-1.1 11.6-2 21.4-2 21.8 0 .5 2.1.6 4.8.3 2.6-.3 10.8-1.1 18.2-1.7 19.2-1.4 17.6-.4 17.2-10.9l-.4-9h7.5c16.7 0 34-9.8 40.7-23.1 2.7-5.2 4.9-17 5-26.3 0-3.8.2-6.7.4-6.5.3.3 1 7.2 1.6 15.4 1 12.5.9 18.3-.4 34.2-.9 10.6-1.9 21.3-2.3 23.9l-.6 4.7 4.9-.6c2.7-.4 10.3-1.1 16.9-1.7 18.7-1.6 17.2-.7 16.3-9.8-.4-4.2-1-17.6-1.3-29.7l-.7-22 10.3-5.3c5.7-2.8 11.6-5.2 13.1-5.2 2.5 0 2.7.4 3.4 5.7 1 8.2-.2 35.2-2 45.3-.9 4.7-2.7 11.9-4 16l-2.4 7.5 3 .3c3.3.4 40-2.7 40.7-3.4.3-.2-.6-5.2-1.9-11.2-1.9-8.7-2.5-14.4-2.8-30.2-.2-10.7.1-22 .5-25l.8-5.5 7.6.3c8.1.4 12.8-1.1 15.1-4.7 1-1.6 2.1-.8 10.2 8.2 5 5.4 11 12.6 13.3 16 4.2 5.9 4.3 6.3 4.3 13.8 0 8.8-1.6 17.3-5.8 30.7l-3 9.2 9.7-.1c11.2 0 35.9-1.4 36.5-2 .3-.2-.4-4.1-1.4-8.5-4-17-5-23.1-5-30 0-11.4 3.7-19.9 12.1-28.1 5.3-5.1 10.3-7.3 16.5-7.3h4.7l-.7-9.3c-.4-5-1-10.7-1.3-12.5l-.5-3.2h-7.2c-7.7 0-14.8 1.9-20.6 5.5-3.8 2.4-11.5 10.3-14.4 14.8-1 1.5-2.2 2.7-2.6 2.7-.4 0-3.4-5.2-6.6-11.5l-5.8-11.5h-4.2c-2.3 0-10.2.7-17.6 1.6-11 1.3-19.8 1.5-51.7 1-23.5-.4-38.7-1-39.1-1.6-.4-.6-7.1-.6-19.4.2l-18.9 1.2.7 6c.3 3.4.8 7.9 1.1 10.1.4 2.5-.1 1.6-1.2-2.5-3.7-13.2-10.7-21.3-21.5-24.6-8.2-2.4-20.1-2.5-24.6-.1l-3.2 1.8-.6-3.1c-.6-2.7-1-3-4.3-2.9-2 .1-7.9.8-13.1 1.6zM56 206c0 2.7.2 5 .5 5 .2 0 2.8-1.5 5.7-3.4 8.6-5.4 11.5-6.1 20.6-4.9 10.7 1.4 15.9 4.9 20.1 13.6 1.7 3.4 3.5 8.9 3.9 12.1 1.2 7.7.6 20.8-1.3 27.1-1.8 6.3-7 12.9-9.6 12.2-1.1-.3-1.6-.1-1.3.4.9 1.5-1.3 3.6-7 6.8-6.2 3.6-8 3.9-22.5 4l-11.4.1.6 9.8.6 9.9-12.2 1c-6.7.5-12.6.6-13 .3-.4-.4-.3-4.5.2-9.1.6-4.6 1.5-16.9 2.1-27.3 1.2-20.3.1-44.7-2.5-54.4l-1.3-5.1 3.1-.6c9.5-1.5 15.7-2.3 20-2.4l4.7-.1v5zm206.5 14.6c1.9 4.2 3.2 8.1 2.8 8.7-.3.5-.1.7.4.4.6-.4 3 2.2 5.3 5.8 2.3 3.6 4.5 6.5 4.9 6.5.3 0 2.1-2.4 3.9-5.4 9-15.2 18.1-22.5 28.8-23.4l6.2-.5.3 5.7c.4 6 .3 6.1-5.8 5.9-.7-.1-1.3.3-1.3.8 0 .4-1.5 1.5-3.3 2.4-1.8.8-5.1 3.3-7.2 5.4-2.3 2.2-4.6 3.7-5.5 3.4-.9-.3-1.1-.2-.4.4.7.5.2 2.1-1.6 5-1.5 2.3-3 4-3.4 3.6-.3-.3-.7 0-.7.8-.1 1.5-.5 3.1-.8 3.9-1.7 3.6-2.8 17.2-2.1 24.1.5 4.1.8 7.6.8 7.9-.1.3.2 1.3.7 2.3.4.9.5 2.6.2 3.7s-.2 1.8.3 1.5c.7-.4 3.5 8.4 2.8 9-.5.5-27.3 2.3-27.9 1.9-.4-.2.4-3.8 1.7-8 3.3-10.9 5-25.6 3.5-32.2-1-4.9-6-13.5-10.8-18.7-1-1.1-3.6-4.1-5.7-6.5-2.1-2.5-7-7.7-10.8-11.7l-6.9-7.2 4.6-.7c4-.5 15.4-1.8 21.8-2.3 1.3-.1 2.7 2 5.2 7.5zm-118.9 27.1c-.1 18.6.2 37.5.7 42l.7 8.2-3.2.5c-10.4 1.5-19.4 2.2-20.1 1.6-.5-.4-.3-4.3.4-8.6 1.9-12.1 1.7-53.6-.4-64.9-.9-5-1.7-9.5-1.7-10.2 0-1.7 2.3-2.1 13.6-2.2l10.1-.1-.1 33.7zm84.7-32c.3.5-.4 3.2-1.6 6l-2 5.3-10.8-.1c-5.9 0-11.4.3-12.1.8-.8.5-1.3 3-1.4 6.3-.1 3-.4 12.7-.7 21.5-.5 16.7.2 26.6 2.8 37.4.9 3.5 1.4 6.5 1.2 6.7-.7.7-24 2.5-25.3 2-1.1-.4-1.2-1.1-.6-2.3.6-1 1.8-5.6 2.8-10.3 1.5-7 1.8-13.2 1.9-34.7 0-17.3-.4-26.6-1.1-27.3-2-2-15 .6-20.1 4.1-2.4 1.7-4.6 2.9-4.9 2.7-.4-.5-2.3-13.9-2.4-17.1 0-1.6 2.4-1.7 36.9-1.7 20.4 0 37.2.3 37.4.7z"/><path d="M62.6 217.5c-1.5.8-3.2 1.2-3.7.9-.5-.3-.8-.1-.7.5.2.5-.5 1.6-1.4 2.3-1.6 1.1-1.9 3.9-2.4 21.5l-.7 20.1 4.4 2.3c3.5 1.8 6 2.3 12.1 2.4 7.1 0 7.9-.2 10.6-2.8 7.9-7.6 8.1-31 .3-40.7-5.9-7.4-12.3-9.7-18.5-6.5zM75 227.9c4.3 4.5 5 7.2 5 18.8 0 9.6-1.6 13.9-5.6 14.9-2.6.7-10.8-.1-12.6-1.2-.7-.4-.8-6.3-.3-17.3.8-18.2 1.1-19.1 6.8-19.1 2.2 0 4 1.1 6.7 3.9zM85.4 263.3c.3 1 .6 2.2.6 2.6 0 .4.6.8 1.3.8.6 0 2.1.4 3.1.9 1.4.5 1.7.4 1.2-.4-.4-.7-1.3-1.2-2-1.2-.8 0-2.1-1-3-2.3-1.3-1.7-1.6-1.8-1.2-.4zM252.5 227c-.3.5-.1 1 .4 1 .6 0 1.1-.5 1.1-1 0-.6-.2-1-.4-1-.3 0-.8.4-1.1 1zM269 241.9c0 .6.5 1.3 1 1.6.6.3 1-.1 1-.9 0-.9-.4-1.6-1-1.6-.5 0-1 .4-1 .9zM279 247.1c0 .5.5.7 1 .4.6-.3 1-.8 1-1.1 0-.2-.4-.4-1-.4-.5 0-1 .5-1 1.1zM275.6 279.9c-.4.5.3.7 1.4.4 2.3-.6 2.6-1.3.6-1.3-.8 0-1.7.4-2 .9zM278.1 288.6c0 1.1.3 1.4.6.6.3-.7.2-1.6-.1-1.9-.3-.4-.6.2-.5 1.3zM282.5 292c-.3.5-.1 1 .4 1 .6 0 1.1-.5 1.1-1 0-.6-.2-1-.4-1-.3 0-.8.4-1.1 1zM267.8 298.7c.7.3 1.6.2 1.9-.1.4-.3-.2-.6-1.3-.5-1.1 0-1.4.3-.6.6zM183 230.3c0 1.7 2 3.7 3.7 3.7 1.8 0 1.6-1.5-.3-3.4-1.9-1.9-3.4-2.1-3.4-.3z"/></svg>